<svg width="36" height="30" viewBox="0 0 36 30" fill="none" xmlns="http://www.w3.org/2000/svg">
<path fill-rule="evenodd" clip-rule="evenodd" d="M9.11975 5.96022C9.11924 5.17737 9.27835 4.40211 9.58799 3.67875C9.89763 2.9554 10.3517 2.29815 10.9243 1.7446C11.4969 1.19104 12.1767 0.752033 12.9249 0.45268C13.6732 0.153328 14.4751 -0.000497579 15.2848 1.20913e-06H20.7161C21.5258 -0.000497579 22.3277 0.153328 23.0759 0.45268C23.8242 0.752033 24.504 1.19104 25.0766 1.7446C25.6492 2.29815 26.1033 2.9554 26.4129 3.67875C26.7225 4.40211 26.8817 5.17737 26.8811 5.96022C26.8815 5.97376 26.8868 5.98674 26.8962 5.99682C26.9055 6.0069 26.9183 6.01343 26.9322 6.01523L31.3078 6.35668C33.2679 6.51223 34.8789 7.91218 35.2458 9.78068C36.1775 14.5468 36.2465 19.4332 35.4499 24.2222L35.2595 25.3679C35.0849 26.4177 34.5512 27.3805 33.7437 28.1023C32.9362 28.8242 31.9016 29.2634 30.8054 29.3496L26.993 29.6474C21.0078 30.1175 14.9931 30.1175 9.00791 29.6474L5.19545 29.3496C4.099 29.2633 3.06421 28.8238 2.25669 28.1016C1.44916 27.3794 0.915591 26.4161 0.741366 25.366L0.551037 24.2222C-0.247558 19.4324 -0.176921 14.5477 0.755101 9.78068C0.933314 8.87207 1.41514 8.04515 2.12657 7.42693C2.838 6.80871 3.73969 6.43338 4.69314 6.35858L9.06874 6.01523C9.08262 6.01343 9.09538 6.0069 9.10473 5.99682C9.11408 5.98674 9.11941 5.97376 9.11975 5.96022ZM18.0004 9.01052C16.049 9.01052 14.1774 9.75998 12.7975 11.094C11.4176 12.4281 10.6424 14.2375 10.6424 16.1241C10.6424 18.0107 11.4176 19.8201 12.7975 21.1541C14.1774 22.4882 16.049 23.2377 18.0004 23.2377C19.9519 23.2377 21.8235 22.4882 23.2034 21.1541C24.5833 19.8201 25.3585 18.0107 25.3585 16.1241C25.3585 14.2375 24.5833 12.4281 23.2034 11.094C21.8235 9.75998 19.9519 9.01052 18.0004 9.01052Z" fill="white"/>
</svg>
