<svg width="40" height="39" viewBox="0 0 40 39" fill="none" xmlns="http://www.w3.org/2000/svg">
<path d="M19.9548 6.70479C10.9869 6.48377 8.08285 13.1204 7.86088 15.6106C7.68825 17.5467 6.81889 24.6283 11.0424 29.3847C13.2219 31.8396 16.7148 33.0626 20.4173 32.98C24.1506 32.8975 27.5232 32.1873 29.7922 29.3287C33.6118 24.5163 33.2049 17.3257 32.687 15.0005C32.1999 12.8375 30.3101 6.95823 19.9548 6.70479Z" fill="#FFEAC8"/>
<path d="M30.1467 19.807C30.4642 22.1086 29.4192 24.3041 26.6662 24.4603C24.1475 24.6047 22.5938 23.0693 22.4704 20.809C22.344 18.4927 23.6697 16.3385 25.7752 16.1174C27.998 15.8846 29.8323 17.5055 30.1467 19.807ZM6.12525 8.69399C6.12525 8.69399 3.09482 9.82858 2.36419 11.5142C1.38077 13.7834 1.83394 18.2864 2.36419 20.034C2.88519 21.7491 4.27247 23.5202 6.41504 23.4642C8.55761 23.4082 10.4381 21.3336 11.1009 18.6253C11.7668 15.9141 11.9117 11.2696 12.1121 10.4386C12.3125 9.60755 12.6609 8.94448 12.6609 8.94448C12.6609 8.94448 10.0004 6.48081 6.12525 8.69399ZM31.5001 8.33446C31.5001 8.33446 35.6095 8.47297 36.5929 8.88849C37.5763 9.30402 38.4734 11.1842 38.3871 13.7009C38.3008 16.2176 38.1282 20.2874 36.7964 21.6931C35.6958 22.8542 33.47 22.9367 32.2245 21.4986C30.9791 20.0605 30.1991 17.6263 29.9093 16.0496C29.6195 14.473 29.1294 12.4278 28.8088 11.5142C28.4912 10.6007 27.7082 8.77651 27.3043 8.36098C26.8974 7.94841 27.7082 7.55941 31.5001 8.33446Z" fill="#D27856"/>
<path d="M9.53799 7.39437C7.3091 7.25881 3.63436 8.94448 2.88214 10.6861C2.12993 12.4278 2.57078 18.0801 3.20276 19.7304C3.86865 21.4721 5.25593 23.6587 7.65746 21.7786C10.059 19.8984 10.694 15.1685 10.9283 13.6479C11.1596 12.1272 11.4771 10.2736 11.8254 9.88752C12.1738 9.50146 12.664 8.94743 12.664 8.94743C12.664 8.94743 12.2879 7.5594 9.53799 7.39437ZM31.9903 7.03484C34.0835 7.17335 36.3587 7.91893 37.1972 9.66355C38.0357 11.4052 37.7182 15.528 37.4007 17.4907C37.0831 19.4534 36.3309 21.5016 34.4504 21.2805C32.5698 21.0595 31.6142 18.6253 31.0377 16.3296C30.4581 14.0339 29.8508 11.7382 29.0986 10.0791C28.6454 9.0771 27.0732 8.33741 27.0732 8.33741C27.0732 8.33741 27.7668 6.75783 31.9903 7.03484Z" fill="#865B51"/>
<path d="M15.867 20.7678C15.7437 21.7756 15.2011 22.589 14.0235 22.4711C13.188 22.3857 12.6269 21.4338 12.7503 20.423C12.8736 19.4151 13.2404 18.6901 14.2269 18.7078C15.7591 18.7344 15.9903 19.757 15.867 20.7678ZM27.964 20.4849C28.0134 21.4986 27.5941 22.365 26.3702 22.4505C25.3066 22.5242 24.761 21.643 24.7147 20.6293C24.6654 19.6155 25.1926 18.8021 26.2068 18.6813C27.5232 18.5192 27.9147 19.4711 27.964 20.4849ZM23.4569 25.5949C23.5063 26.6087 22.791 27.5576 20.5622 27.5311C18.3918 27.5046 17.6026 26.6647 17.5533 25.6509C17.504 24.6371 18.7371 23.7265 20.5036 23.6882C22.9359 23.6293 23.4076 24.5782 23.4569 25.5949Z" fill="#2F2F2F"/>
<path d="M18.5367 29.6883C18.5367 29.6883 18.7988 32.0959 19.0577 32.815C19.6065 34.3356 21.9186 34.0822 22.3286 32.65C22.677 31.4329 22.4458 29.3317 22.4458 29.3317L20.3926 29.0547L18.5367 29.6883Z" fill="#E94B8C"/>
<path d="M20.6331 30.4898C20.2724 30.5046 20.2847 30.8228 20.2847 31.5537C20.2847 32.2875 20.3279 32.7295 20.6762 32.7148C21.0246 32.7001 20.9814 32.1343 20.9814 31.6097C20.9814 31.0851 21.0092 30.4751 20.6331 30.4898Z" fill="#EF87B2"/>
<path d="M15.7591 27.4044C15.3429 27.9908 16.1506 28.5095 16.8165 28.9397C17.4824 29.367 18.2901 30.0183 19.2458 30.0036C20.3156 29.9889 20.6053 29.2993 20.6053 29.2993C20.6053 29.2993 20.9537 30.1156 22.4705 29.9623C23.2812 29.8798 24.2801 29.0105 24.5822 28.816C25.1618 28.4417 25.8554 27.9731 25.5502 27.5841C25.2019 27.1391 24.4651 27.7374 23.7128 28.1087C22.9606 28.483 22.7017 28.6627 22.1375 28.6627C21.5734 28.6627 21.1818 28.4417 21.1541 27.5429C21.1294 26.8091 21.1387 26.6706 21.1387 26.6706H19.85C19.85 26.6706 19.8932 27.4456 19.8932 27.6666C19.8932 28.2472 19.5757 28.4977 18.9684 28.5242C18.361 28.5507 17.7106 28.0674 17.3899 27.8877C17.0755 27.7108 16.0921 26.9358 15.7591 27.4044Z" fill="#2F2F30"/>
</svg>
