<svg width="39" height="38" viewBox="0 0 39 38" fill="none" xmlns="http://www.w3.org/2000/svg">
<path d="M19.5 34.8333C17.4687 34.8333 15.5664 34.4575 13.793 33.706C12.0196 32.9544 10.4758 31.9385 9.16173 30.6581C7.84764 29.3777 6.80493 27.8735 6.0336 26.1456C5.26227 24.4176 4.87606 22.5635 4.87498 20.5833C4.87389 18.6031 5.2601 16.7495 6.0336 15.0227C6.8071 13.2958 7.84927 11.7916 9.1601 10.5102C10.4709 9.22871 12.0147 8.21274 13.7914 7.46224C15.568 6.71174 17.4709 6.33544 19.5 6.33333C21.5291 6.33121 23.4319 6.70752 25.2086 7.46224C26.9853 8.21696 28.529 9.23294 29.8399 10.5102C31.1507 11.7874 32.1934 13.2915 32.968 15.0227C33.7426 16.7538 34.1282 18.6073 34.125 20.5833C34.1217 22.5593 33.7361 24.4134 32.968 26.1456C32.1999 27.8777 31.1572 29.3819 29.8399 30.6581C28.5225 31.9342 26.9788 32.9502 25.2086 33.706C23.4384 34.4618 21.5356 34.8375 19.5 34.8333ZM24.05 27.2333L26.325 25.0167L21.125 19.95V12.6667H17.875V21.2167L24.05 27.2333ZM9.09998 3.72083L11.375 5.93749L4.46873 12.6667L2.19373 10.45L9.09998 3.72083ZM29.9 3.72083L36.8062 10.45L34.5312 12.6667L27.625 5.93749L29.9 3.72083Z" fill="white"/>
</svg>
