<svg width="19" height="17" viewBox="0 0 19 17" fill="none" xmlns="http://www.w3.org/2000/svg">
<path d="M9.5 5C12 5 14 7 14 9.5C14 12 12 14 9.5 14C7 14 5 12 5 9.5C5 7 7 5 9.5 5ZM9.5 6C8.57174 6 7.6815 6.36875 7.02513 7.02513C6.36875 7.6815 6 8.57174 6 9.5C6 10.4283 6.36875 11.3185 7.02513 11.9749C7.6815 12.6313 8.57174 13 9.5 13C10.4283 13 11.3185 12.6313 11.9749 11.9749C12.6313 11.3185 13 10.4283 13 9.5C13 8.57174 12.6313 7.6815 11.9749 7.02513C11.3185 6.36875 10.4283 6 9.5 6ZM3 2H5L7 0H12L14 2H16C16.7956 2 17.5587 2.31607 18.1213 2.87868C18.6839 3.44129 19 4.20435 19 5V14C19 14.7956 18.6839 15.5587 18.1213 16.1213C17.5587 16.6839 16.7956 17 16 17H3C2.20435 17 1.44129 16.6839 0.87868 16.1213C0.316071 15.5587 0 14.7956 0 14V5C0 4.20435 0.316071 3.44129 0.87868 2.87868C1.44129 2.31607 2.20435 2 3 2ZM7.41 1L5.41 3H3C2.46957 3 1.96086 3.21071 1.58579 3.58579C1.21071 3.96086 1 4.46957 1 5V14C1 14.5304 1.21071 15.0391 1.58579 15.4142C1.96086 15.7893 2.46957 16 3 16H16C16.5304 16 17.0391 15.7893 17.4142 15.4142C17.7893 15.0391 18 14.5304 18 14V5C18 4.46957 17.7893 3.96086 17.4142 3.58579C17.0391 3.21071 16.5304 3 16 3H13.59L11.59 1H7.41Z" fill="#1E1E1E"/>
</svg>
