<svg width="39" height="47" viewBox="0 0 39 47" fill="none" xmlns="http://www.w3.org/2000/svg">
<path d="M22.3269 10.75C19.0886 10.75 15.9231 11.7903 13.2305 13.7393C10.538 15.6883 8.43943 18.4585 7.20019 21.6997C5.96095 24.9408 5.63671 28.5072 6.26847 31.9479C6.90023 35.3886 8.45961 38.5492 10.7494 41.0298C13.0392 43.5104 15.9566 45.1998 19.1327 45.8842C22.3088 46.5686 25.6009 46.2173 28.5926 44.8748C31.5844 43.5323 34.1416 41.2588 35.9406 38.3419C37.7397 35.425 38.7 31.9956 38.7 28.4875C38.7 23.7832 36.975 19.2716 33.9044 15.9452C30.8339 12.6188 26.6693 10.75 22.3269 10.75ZM28.6715 34.23C28.5972 34.3519 28.5013 34.4566 28.3895 34.5382C28.2777 34.6198 28.152 34.6767 28.0199 34.7055C27.8877 34.7344 27.7515 34.7346 27.6193 34.7063C27.487 34.678 27.3612 34.6216 27.2491 34.5404L21.2115 30.106V20.4502C21.2115 20.1562 21.3193 19.8742 21.5112 19.6663C21.7032 19.4584 21.9634 19.3416 22.2348 19.3416C22.5062 19.3416 22.7665 19.4584 22.9584 19.6663C23.1503 19.8742 23.2582 20.1562 23.2582 20.4502V28.9309L28.3747 32.6891C28.4881 32.7687 28.5857 32.8719 28.662 32.9927C28.7383 33.1134 28.7918 33.2493 28.8194 33.3926C28.847 33.5358 28.8481 33.6836 28.8227 33.8273C28.7974 33.971 28.746 34.1079 28.6715 34.23ZM28.3133 17.6565C26.8735 16.7164 25.2629 16.1247 23.5922 15.9223C21.9214 15.7198 20.23 15.9113 18.634 16.4836C17.038 17.0558 15.5751 17.9954 14.3458 19.2377C13.1165 20.4801 12.1498 21.9958 11.5121 23.681C10.8743 25.3661 10.5806 27.1808 10.6511 29.0004C10.7216 30.8201 11.1547 32.6017 11.9205 34.223C12.6864 35.8444 13.7669 37.267 15.088 38.3934C16.4091 39.5197 17.9395 40.3232 19.5742 40.7485L19.257 42.489C17.3822 42.0163 15.6245 41.1085 14.1051 39.8282C12.5857 38.5479 11.3409 36.9256 10.4566 35.0734C9.57228 33.2212 9.06953 31.1832 8.98306 29.1C8.89658 27.0168 9.22844 24.9381 9.95571 23.0074C10.683 21.0766 11.7884 19.3399 13.1955 17.917C14.6027 16.4941 16.2781 15.419 18.1062 14.7659C19.9342 14.1128 21.8713 13.8972 23.7837 14.1341C25.6961 14.3709 27.5384 15.0545 29.1832 16.1378L28.3133 17.6565Z" fill="black"/>
</svg>
