<svg width="40" height="40" viewBox="0 0 40 40" fill="none" xmlns="http://www.w3.org/2000/svg">
<path d="M9.70665 6.05334L20 16.3467L30.24 6.10668C30.4662 5.86592 30.7387 5.67333 31.0411 5.54044C31.3435 5.40756 31.6697 5.33712 32 5.33334C32.7072 5.33334 33.3855 5.61429 33.8856 6.11439C34.3857 6.61449 34.6667 7.29277 34.6667 8.00001C34.6729 8.32695 34.6122 8.65171 34.4884 8.95436C34.3646 9.25701 34.1802 9.53117 33.9467 9.76001L23.5733 20L33.9467 30.3733C34.3862 30.8033 34.6439 31.3856 34.6667 32C34.6667 32.7073 34.3857 33.3855 33.8856 33.8856C33.3855 34.3857 32.7072 34.6667 32 34.6667C31.6601 34.6808 31.3211 34.6241 31.0043 34.5001C30.6875 34.3762 30.4 34.1877 30.16 33.9467L20 23.6533L9.73332 33.92C9.508 34.1527 9.23883 34.3385 8.94133 34.4667C8.64383 34.5948 8.32389 34.6628 7.99999 34.6667C7.29274 34.6667 6.61447 34.3857 6.11437 33.8856C5.61427 33.3855 5.33332 32.7073 5.33332 32C5.3271 31.6731 5.38776 31.3483 5.51157 31.0457C5.63538 30.743 5.81974 30.4689 6.05332 30.24L16.4267 20L6.05332 9.62668C5.61381 9.1967 5.35609 8.61444 5.33332 8.00001C5.33332 7.29277 5.61427 6.61449 6.11437 6.11439C6.61447 5.61429 7.29274 5.33334 7.99999 5.33334C8.63999 5.34134 9.25332 5.60001 9.70665 6.05334Z" fill="#F24822"/>
</svg>
