<svg width="28" height="35" viewBox="0 0 28 35" fill="none" xmlns="http://www.w3.org/2000/svg">
<path d="M8.78111 30.9331C9.11716 32.1084 9.80648 33.1389 10.7467 33.8716C11.6869 34.6043 12.8278 35 14 35C15.1722 35 16.3131 34.6043 17.2533 33.8716C18.1935 33.1389 18.8828 32.1084 19.2189 30.9331H8.78111ZM0 29.305H28V24.4209L24.8889 19.5367V11.3964C24.8889 9.8998 24.6072 8.41786 24.06 7.03519C23.5128 5.65251 22.7107 4.39618 21.6996 3.33793C20.6885 2.27967 19.4881 1.44022 18.167 0.867499C16.8459 0.294776 15.4299 0 14 0C12.5701 0 11.1541 0.294776 9.833 0.867499C8.5119 1.44022 7.31152 2.27967 6.30039 3.33793C5.28927 4.39618 4.4872 5.65251 3.93998 7.03519C3.39276 8.41786 3.11111 9.8998 3.11111 11.3964V19.5367L0 24.4209V29.305Z" fill="white"/>
</svg>
