<svg width="63" height="64" viewBox="0 0 63 64" fill="none" xmlns="http://www.w3.org/2000/svg">
<path fill-rule="evenodd" clip-rule="evenodd" d="M20.25 6.85712C18.0225 6.85712 16.2765 8.23312 15.1965 9.8834C14.103 11.5474 13.5 13.7188 13.5 16C13.5 18.2811 14.103 20.4525 15.1965 22.1165C16.2765 23.7623 18.0225 25.1428 20.25 25.1428C22.4775 25.1428 24.2235 23.7668 25.3035 22.1165C26.397 20.4525 27 18.2811 27 16C27 13.7188 26.397 11.5474 25.3035 9.8834C24.2235 8.23769 22.4775 6.85712 20.25 6.85712ZM42.75 6.85712C40.5225 6.85712 38.7765 8.23312 37.6965 9.8834C36.603 11.5474 36 13.7188 36 16C36 18.2811 36.603 20.4525 37.6965 22.1165C38.7765 23.7623 40.5225 25.1428 42.75 25.1428C44.9775 25.1428 46.7235 23.7668 47.8035 22.1165C48.897 20.4525 49.5 18.2811 49.5 16C49.5 13.7188 48.897 11.5474 47.8035 9.8834C46.7235 8.23769 44.9775 6.85712 42.75 6.85712ZM6.75 27.4285C4.5225 27.4285 2.7765 28.8045 1.6965 30.4548C0.603 32.1188 0 34.2903 0 36.5714C0 38.8525 0.603 41.024 1.6965 42.688C2.7765 44.3337 4.5225 45.7143 6.75 45.7143C8.9775 45.7143 10.7235 44.3383 11.8035 42.688C12.897 41.024 13.5 38.8525 13.5 36.5714C13.5 34.2903 12.897 32.1188 11.8035 30.4548C10.7235 28.8091 8.9775 27.4285 6.75 27.4285ZM31.5 27.4285C26.1 27.4285 22.0995 30.3725 19.5435 34.0251C17.019 37.6228 15.75 42.0891 15.75 45.7143C15.75 49.9383 18.2475 52.8731 21.312 54.6377C24.327 56.3748 28.107 57.1428 31.5 57.1428C34.893 57.1428 38.673 56.3794 41.688 54.6377C44.748 52.8731 47.25 49.9383 47.25 45.7143C47.25 42.0891 45.981 37.6228 43.4565 34.0251C40.905 30.368 36.9045 27.4285 31.5 27.4285ZM56.25 27.4285C54.0225 27.4285 52.2765 28.8045 51.1965 30.4548C50.103 32.1188 49.5 34.2903 49.5 36.5714C49.5 38.8525 50.103 41.024 51.1965 42.688C52.2765 44.3337 54.0225 45.7143 56.25 45.7143C58.4775 45.7143 60.2235 44.3383 61.3035 42.688C62.397 41.024 63 38.8525 63 36.5714C63 34.2903 62.397 32.1188 61.3035 30.4548C60.2235 28.8091 58.4775 27.4285 56.25 27.4285Z" fill="black"/>
</svg>
