<svg width="39" height="39" viewBox="0 0 39 39" fill="none" xmlns="http://www.w3.org/2000/svg">
<path fill-rule="evenodd" clip-rule="evenodd" d="M23.088 7.84875C23.8247 8.07625 24.5288 8.36875 25.2005 8.72625L28.1791 6.93875C28.4897 6.75246 28.8536 6.67527 29.2131 6.71943C29.5726 6.76359 29.907 6.92658 30.1632 7.1825L31.8175 8.83675C32.0734 9.09301 32.2364 9.42743 32.2806 9.7869C32.3247 10.1464 32.2475 10.5103 32.0612 10.8209L30.2737 13.7995C30.6312 14.4712 30.9237 15.1753 31.1513 15.912L34.5199 16.7554C34.8713 16.8434 35.1832 17.0463 35.4061 17.3319C35.6289 17.6175 35.75 17.9694 35.75 18.3316V20.6684C35.75 21.0306 35.6289 21.3825 35.4061 21.6681C35.1832 21.9537 34.8713 22.1566 34.5199 22.2446L31.1513 23.088C30.9237 23.8247 30.6312 24.5288 30.2737 25.2005L32.0612 28.1791C32.2475 28.4897 32.3247 28.8536 32.2806 29.2131C32.2364 29.5726 32.0734 29.907 31.8175 30.1632L30.1632 31.8175C29.907 32.0734 29.5726 32.2364 29.2131 32.2806C28.8536 32.3247 28.4897 32.2475 28.1791 32.0612L25.2005 30.2737C24.5288 30.6312 23.8247 30.9237 23.088 31.1513L22.2446 34.5199C22.1566 34.8713 21.9537 35.1832 21.6681 35.4061C21.3825 35.6289 21.0306 35.75 20.6684 35.75H18.3316C17.9694 35.75 17.6175 35.6289 17.3319 35.4061C17.0463 35.1832 16.8434 34.8713 16.7554 34.5199L15.912 31.1513C15.1819 30.9256 14.4746 30.6318 13.7995 30.2737L10.8209 32.0612C10.5103 32.2475 10.1464 32.3247 9.7869 32.2806C9.42743 32.2364 9.09301 32.0734 8.83675 31.8175L7.1825 30.1632C6.92658 29.907 6.76359 29.5726 6.71943 29.2131C6.67527 28.8536 6.75246 28.4897 6.93875 28.1791L8.72625 25.2005C8.36817 24.5254 8.07437 23.8181 7.84875 23.088L4.48012 22.2446C4.12899 22.1567 3.81728 21.954 3.59444 21.6687C3.37159 21.3835 3.25037 21.032 3.25 20.67V18.3332C3.25001 17.971 3.37107 17.6191 3.59394 17.3335C3.81681 17.048 4.12872 16.845 4.48012 16.757L7.84875 15.9136C8.07625 15.177 8.36875 14.4728 8.72625 13.8011L6.93875 10.8225C6.75246 10.5119 6.67527 10.148 6.71943 9.78852C6.76359 9.42905 6.92658 9.09464 7.1825 8.83838L8.83675 7.1825C9.09301 6.92658 9.42743 6.76359 9.7869 6.71943C10.1464 6.67527 10.5103 6.75246 10.8209 6.93875L13.7995 8.72625C14.4712 8.36875 15.1753 8.07625 15.912 7.84875L16.7554 4.48012C16.8433 4.12899 17.046 3.81728 17.3313 3.59444C17.6165 3.37159 17.968 3.25037 18.33 3.25H20.6667C21.029 3.25001 21.3809 3.37107 21.6665 3.59394C21.952 3.81681 22.155 4.12872 22.243 4.48012L23.088 7.84875ZM19.5 26C21.2239 26 22.8772 25.3152 24.0962 24.0962C25.3152 22.8772 26 21.2239 26 19.5C26 17.7761 25.3152 16.1228 24.0962 14.9038C22.8772 13.6848 21.2239 13 19.5 13C17.7761 13 16.1228 13.6848 14.9038 14.9038C13.6848 16.1228 13 17.7761 13 19.5C13 21.2239 13.6848 22.8772 14.9038 24.0962C16.1228 25.3152 17.7761 26 19.5 26Z" fill="white"/>
</svg>
